<svg xmlns="http://www.w3.org/2000/svg" viewBox="0 0 128 128" style="enable-background:new 0 0 128 128" xml:space="preserve" width="128" height="128"><path style="fill:#010101" d="M122.576 55.458h-9.081c-1.36-12.789-13.293-23.261-28.614-25.372v-5.001c0-2.983-2.441-5.424-5.424-5.424s-5.424 2.441-5.424 5.424v4.928c-15.581 1.936-27.78 12.505-29.156 25.445h-3.115V20.746c0-1.356-.542-2.712-1.627-3.796L24.678 1.763c-2.17-2.17-5.424-2.17-7.593 0L1.627 17.22C.542 18.305 0 19.661 0 21.017v101.424c0 2.983 2.441 5.424 5.424 5.424h117.152c2.983 0 5.152-2.17 5.424-5.152V60.881c0-2.983-2.441-5.423-5.424-5.423zM79.458 40.271c11.912 0 22.006 6.587 23.634 15.187H55.819c1.591-8.6 11.478-15.187 23.639-15.187zm-68.61-17.085 10.033-10.034 10.305 10.034v36.009a5.373 5.373 0 0 0-.271 1.685v56.407H10.848V23.186zm60.474 94.102V91.525l8.407-5.152 8.407 5.152v25.763H71.322zm45.831 0H98.712V88.542c0-1.898-1.085-3.526-2.712-4.61l-13.831-8.136a4.926 4.926 0 0 0-5.424 0l-13.831 8.136c-1.627 1.085-2.712 2.712-2.712 4.61v28.746H41.761V66.305h75.392v50.983z"/></svg>