<svg version="1.1" id="Layer_1" xmlns="http://www.w3.org/2000/svg" xmlns:xlink="http://www.w3.org/1999/xlink" x="0px" y="0px" viewBox="0.000 0.000 128.000 128.000" style="enable-background:new 0 0 128 128;" xml:space="preserve" width="128" height="128"><g><g><path style="fill:#ffffff;" d="M122.576 55.458h-9.081c-1.36 -12.789 -13.293 -23.261 -28.614 -25.372v-5.001c0 -2.983 -2.441 -5.424 -5.424 -5.424s-5.424 2.441 -5.424 5.424v4.928c-15.581 1.936 -27.78 12.505 -29.156 25.445h-3.115V20.746c0 -1.356 -0.542 -2.712 -1.627 -3.796L24.678 1.763c-2.17 -2.17 -5.424 -2.17 -7.593 0L1.627 17.22C0.542 18.305 0 19.661 0 21.017v101.424c0 2.983 2.441 5.424 5.424 5.424h30.915h29.288h27.661h29.288c2.983 0 5.152 -2.17 5.424 -5.152V60.881C128 57.898 125.559 55.458 122.576 55.458zM79.458 40.271c11.912 0 22.006 6.587 23.634 15.187H55.819C57.41 46.858 67.297 40.271 79.458 40.271zM10.848 23.186L20.881 13.152l10.305 10.034v36.009c-0.175 0.531 -0.271 1.097 -0.271 1.685v56.407H10.848V23.186zM71.322 117.288V91.525l8.407 -5.152l8.407 5.152v25.763H71.322zM117.153 117.288h-18.441V88.542c0 -1.898 -1.085 -3.526 -2.712 -4.61l-13.831 -8.136c-1.627 -1.085 -3.796 -1.085 -5.424 0l-13.831 8.136c-1.627 1.085 -2.712 2.712 -2.712 4.61v28.746h-18.441V66.305H117.153V117.288z"/></g></g><g/><g/><g/></svg>